<svg width="33" height="24" viewBox="0 0 33 24" fill="none" xmlns="http://www.w3.org/2000/svg">
<path d="M29.8005 9.5492C27.9756 8.86614 26.3943 9.22771 24.9516 10.1325L23.1498 2.06232C23.0831 1.76353 22.9551 1.48188 22.7741 1.23524C22.593 0.988593 22.3627 0.782333 22.0979 0.629532C21.833 0.47673 21.5394 0.380721 21.2356 0.347589C20.9318 0.314457 20.6244 0.344926 20.333 0.437064L12.5667 2.89499C12.0045 3.07296 11.4987 3.3957 11.1 3.83095C10.7012 4.26619 10.4236 4.79869 10.2947 5.37518L9.12672 10.6027C6.58805 8.74058 4.62538 9.18763 3.57738 9.71217C1.45294 10.7808 0.518712 13.3243 1.19694 16.1981C2.07516 19.917 5.5125 23.6671 11.2192 23.6671C16.3747 23.6671 19.7801 19.6249 22.5161 16.378C25.1418 13.261 26.8512 11.3909 28.8378 12.1309C29.9499 12.5468 30.3996 13.3955 30.1712 14.6521C29.7027 17.2507 26.2521 20.91 20.0485 20.91V23.6707C25.5996 23.6707 31.9161 20.4816 32.8779 15.1454C33.3427 12.5771 32.1632 10.4335 29.8005 9.5492ZM20.4138 14.6004C17.7996 17.7004 15.0965 20.9118 11.2192 20.9118C7.01739 20.9118 4.50272 18.2259 3.87427 15.564C3.59072 14.3609 3.66538 12.7525 4.81027 12.1799C5.98538 11.5903 7.45205 12.6688 8.44939 13.6413L7.78716 16.6042H10.6067L12.8974 6.34588C12.9496 6.11255 13.0621 5.89705 13.2236 5.72092C13.385 5.5448 13.5898 5.41421 13.8174 5.34223L19.6956 3.48186C19.8085 3.44619 19.9276 3.4344 20.0453 3.44724C20.1631 3.46008 20.2768 3.49727 20.3794 3.55646C20.482 3.61565 20.5713 3.69555 20.6415 3.79109C20.7117 3.88663 20.7613 3.99573 20.7872 4.11148L22.5792 12.1398C21.8396 12.9084 21.1232 13.7579 20.4138 14.6004Z" fill="#282828"/>
</svg>
